<svg width="30.000000" height="21.000000" viewBox="0 0 30 21" fill="none" xmlns="http://www.w3.org/2000/svg" xmlns:xlink="http://www.w3.org/1999/xlink">
	<desc>
			Created with Pixso.
	</desc>
	<defs>
		<clipPath id="clip7_3845">
			<rect width="30.000000" height="21.000000" fill="white" fill-opacity="0"/>
		</clipPath>
	</defs>
	<rect width="30.000000" height="21.000000" fill="#FFFFFF" fill-opacity="0"/>
	<g clip-path="url(#clip7_3845)">
		<path d="M19.24 3.43C22.66 3.43 25.42 5.5 25.42 8.39C25.42 14.18 17 17.48 14.19 18.72C11.38 17.48 2.95 14.18 2.95 8.39C2.95 5.5 5.76 3.43 9.13 3.43C11.22 3.43 13.06 4.26 14.19 5.09C15.31 4.26 17.15 3.43 19.24 3.43ZM15.24 16.33C16.23 15.87 17.12 15.41 17.95 14.92C21.31 12.97 23.18 10.83 23.18 8.39C23.18 6.44 21.45 5.09 19.24 5.09C18.03 5.09 16.73 5.56 15.77 6.26L14.19 7.42L12.6 6.26C11.65 5.56 10.34 5.09 9.13 5.09C6.95 5.09 5.19 6.46 5.19 8.39C5.19 10.83 7.07 12.97 10.41 14.92C11.25 15.41 12.15 15.87 13.14 16.33C13.47 16.49 13.8 16.63 14.19 16.8C14.57 16.63 14.9 16.49 15.24 16.33Z" fill="#FFFFFF" fill-opacity="1.000000" fill-rule="nonzero"/>
	</g>
</svg>
