<svg width="21.362793" height="21.200195" viewBox="0 0 21.3628 21.2002" fill="none" xmlns="http://www.w3.org/2000/svg" xmlns:xlink="http://www.w3.org/1999/xlink">
	<desc>
			Created with Pixso.
	</desc>
	<defs>
		<clipPath id="clip7_3840">
			<rect width="21.363007" height="21.199999" fill="white" fill-opacity="0"/>
		</clipPath>
	</defs>
	<rect width="21.363007" height="21.199999" fill="#FFFFFF" fill-opacity="0"/>
	<g clip-path="url(#clip7_3840)">
		<path d="M10.68 9.71C11.56 9.71 12.42 9.45 13.15 8.97C13.88 8.48 14.45 7.79 14.79 6.98C15.13 6.18 15.21 5.29 15.04 4.43C14.87 3.58 14.45 2.79 13.82 2.17C13.2 1.55 12.41 1.13 11.54 0.96C10.68 0.79 9.79 0.88 8.97 1.21C8.16 1.55 7.47 2.11 6.98 2.84C6.49 3.57 6.23 4.42 6.23 5.29C6.23 6.47 6.7 7.59 7.53 8.42C8.37 9.24 9.5 9.71 10.68 9.71ZM10.68 2.64C11.2 2.64 11.72 2.8 12.16 3.09C12.6 3.38 12.94 3.8 13.14 4.28C13.35 4.76 13.4 5.3 13.3 5.81C13.19 6.33 12.94 6.8 12.56 7.17C12.19 7.54 11.72 7.79 11.2 7.89C10.68 8 10.14 7.94 9.65 7.74C9.17 7.54 8.75 7.2 8.46 6.77C8.16 6.33 8.01 5.82 8.01 5.29C8.01 4.59 8.29 3.92 8.79 3.42C9.29 2.92 9.97 2.64 10.68 2.64ZM2.67 19.43L2.67 15.89C2.67 14.72 3.14 13.6 3.97 12.77C4.81 11.95 5.94 11.48 7.12 11.48L14.24 11.48C15.42 11.48 16.55 11.95 17.38 12.77C18.22 13.6 18.69 14.72 18.69 15.89L18.69 19.43C18.69 19.66 18.59 19.89 18.43 20.05C18.26 20.22 18.03 20.31 17.8 20.31C17.56 20.31 17.33 20.22 17.17 20.05C17 19.89 16.91 19.66 16.91 19.43L16.91 15.89C16.91 15.19 16.63 14.52 16.13 14.02C15.62 13.52 14.95 13.24 14.24 13.24L7.12 13.24C6.41 13.24 5.73 13.52 5.23 14.02C4.73 14.52 4.45 15.19 4.45 15.89L4.45 19.43C4.45 19.66 4.35 19.89 4.18 20.05C4.02 20.22 3.79 20.31 3.56 20.31C3.32 20.31 3.09 20.22 2.93 20.05C2.76 19.89 2.67 19.66 2.67 19.43Z" fill="#FFFFFF" fill-opacity="1.000000" fill-rule="nonzero"/>
	</g>
</svg>
