<svg width="16.642578" height="17.714844" viewBox="0 0 16.6426 17.7148" fill="none" xmlns="http://www.w3.org/2000/svg" xmlns:xlink="http://www.w3.org/1999/xlink">
	<desc>
			Created with Pixso.
	</desc>
	<defs/>
	<path d="M7.46 0C3.35 0 0 3.56 0 7.94C0 12.32 3.35 15.9 7.46 15.9C9.22 15.9 10.84 15.24 12.12 14.15L15.23 17.46C15.39 17.62 15.6 17.71 15.81 17.71C16.03 17.71 16.24 17.61 16.39 17.45C16.55 17.29 16.64 17.07 16.64 16.83C16.64 16.6 16.56 16.38 16.41 16.21L13.3 12.9C14.32 11.54 14.94 9.82 14.94 7.94C14.94 3.56 11.58 0 7.46 0ZM7.46 1.76C10.68 1.76 13.27 4.52 13.27 7.94C13.27 11.37 10.68 14.13 7.46 14.13C4.25 14.13 1.66 11.37 1.66 7.94C1.66 4.52 4.25 1.76 7.46 1.76Z" fill="#443297" fill-opacity="1.000000" fill-rule="nonzero"/>
</svg>
