<svg width="21.230469" height="21.200195" viewBox="0 0 21.2305 21.2002" fill="none" xmlns="http://www.w3.org/2000/svg" xmlns:xlink="http://www.w3.org/1999/xlink">
	<desc>
			Created with Pixso.
	</desc>
	<defs>
		<clipPath id="clip7_3829">
			<rect width="21.230600" height="21.199999" fill="white" fill-opacity="0"/>
		</clipPath>
	</defs>
	<rect width="21.230600" height="21.199999" fill="#FFFFFF" fill-opacity="0"/>
	<g clip-path="url(#clip7_3829)">
		<path d="M15.92 18.54C15.92 17.57 16.71 16.78 17.69 16.78C18.66 16.78 19.46 17.57 19.46 18.54C19.46 19.52 18.66 20.31 17.69 20.31C16.71 20.31 15.92 19.52 15.92 18.54Z" fill="#FFFFFF" fill-opacity="1.000000" fill-rule="evenodd"/>
		<path d="M6.19 18.54C6.19 17.57 6.98 16.78 7.96 16.78C8.93 16.78 9.73 17.57 9.73 18.54C9.73 19.52 8.93 20.31 7.96 20.31C6.98 20.31 6.19 19.52 6.19 18.54Z" fill="#FFFFFF" fill-opacity="1.000000" fill-rule="evenodd"/>
		<path d="M0 0.88C0 0.39 0.39 0 0.88 0L4.42 0C4.84 0 5.2 0.29 5.29 0.7L6.03 4.41L20.34 4.41C20.6 4.41 20.85 4.53 21.02 4.73C21.19 4.93 21.26 5.2 21.21 5.46L19.79 12.88C19.67 13.49 19.34 14.04 18.85 14.43C18.37 14.81 17.77 15.02 17.15 15.01L8.57 15.01C7.95 15.02 7.34 14.81 6.86 14.43C6.37 14.04 6.04 13.49 5.92 12.88L4.44 5.51C4.44 5.48 4.43 5.46 4.43 5.43L3.69 1.76L0.88 1.76C0.39 1.76 0 1.37 0 0.88L0 0.88ZM6.38 6.18L7.66 12.53C7.7 12.74 7.81 12.92 7.97 13.05C8.13 13.18 8.33 13.25 8.54 13.25L8.56 13.25L17.16 13.25L17.17 13.25C17.38 13.25 17.58 13.18 17.75 13.05C17.91 12.92 18.02 12.74 18.06 12.54L19.27 6.18L6.38 6.18Z" fill="#FFFFFF" fill-opacity="1.000000" fill-rule="evenodd"/>
	</g>
</svg>
